<svg xmlns="http://www.w3.org/2000/svg" xmlns:xlink="http://www.w3.org/1999/xlink" style="enable-background:new" id="svg11300" width="400" height="300" version="1.0"><title id="title2348">Text Editor</title><defs id="defs3"><pattern id="pattern53472" patternTransform="matrix(-.47890 -.96646 -.96646 .47890 127.75 198.38)" xlink:href="#pattern50106"/><pattern id="pattern52282" patternTransform="matrix(-.47890 -.96646 -.96646 .47890 -161.78 6.9926)" xlink:href="#pattern48916"/><pattern id="pattern50106" patternTransform="matrix(-.47890 -.96646 -.96646 .47890 117.82 3.2457)" xlink:href="#pattern15307"/><pattern id="pattern48916" patternTransform="matrix(-.47890 -.96646 -.96646 .47890 -306.78 -123.97)" xlink:href="#pattern17129"/><pattern id="pattern17129" patternTransform="matrix(-.47890 -.96646 -.96646 .47890 -306.78 -123.97)" xlink:href="#pattern2420"/><pattern id="pattern15307" patternTransform="matrix(-.47890 -.96646 -.96646 .47890 117.82 3.2457)" xlink:href="#pattern2420"/><linearGradient id="linearGradient6424-5-0" x1="18.188" x2="32.938" y1="18.538" y2="18.392" gradientTransform="matrix(.66667 0 0 .27667 6.5065 15.425)" gradientUnits="userSpaceOnUse"><stop id="stop1815-2-1-9" offset="0"/><stop id="stop1817-4-8-3" offset="1" stop-opacity="0"/></linearGradient><linearGradient id="linearGradient6432-5-3" x1="27.861" x2="30.432" y1="12.12" y2="14.691" gradientTransform="matrix(.66667 0 0 .66667 4.2615 8.1231)" gradientUnits="userSpaceOnUse"><stop id="stop2277-5-4" offset="0" stop-color="#fcaf3e"/><stop id="stop2279-9-4" offset="1" stop-color="#ce5c00"/></linearGradient><radialGradient id="radialGradient736-9-2" cx="-138.84" cy="128" r="9.127" gradientTransform="matrix(.21547 -.21552 .21683 .21688 31.918 -48.129)" gradientUnits="userSpaceOnUse"><stop id="stop4121-0-5-5-8-7" offset="0" stop-color="#f9a9a9"/><stop id="stop4119-1-6-1-5-5" offset="1" stop-color="#ab5f5f"/></radialGradient><linearGradient id="linearGradient924" x1="-158.75" x2="-158.75" y1="115.94" y2="134.25" gradientTransform="matrix(.12725 -.12728 .12725 .12728 31.393 -23.627)" gradientUnits="userSpaceOnUse"><stop id="stop4101-1-8-4-5-5" offset="0" stop-color="#ddd"/><stop id="stop4107-2-2-1-7-0" offset=".345" stop-color="#fff"/><stop id="stop4109-5-7-5-9-9" offset=".727" stop-color="#737373"/><stop id="stop4103-9-2-9-9-9" offset="1" stop-color="#bbb"/></linearGradient><clipPath id="clipPath5818" clipPathUnits="userSpaceOnUse"><rect id="rect5820" width="12.637" height="12.637" x="18.614" y="8.41"/></clipPath><filter id="filter5858" width="1" height="1" x="0" y="0" color-interpolation-filters="sRGB"><feColorMatrix id="feColorMatrix5860" type="saturate" values="0"/></filter><pattern id="pattern2972-8-9" width="60" height="47.05" patternTransform="matrix(-.53889 -1.0875 -1.0875 .53889 338.56 221.4)" patternUnits="userSpaceOnUse"><image id="image2245-7-7" width="60" height="47.05" x="0" y="0" xlink:href="file:///home/jimmac/Desktop/wood.png"/></pattern><pattern id="pattern756" patternTransform="matrix(-0.444 -.89603 -.89603 0.444 102.07 310.32)" xlink:href="#pattern2972-8-9"/><pattern id="pattern2156" patternTransform="matrix(-0.444 -.89603 -.89603 0.444 100.28 311.21)" xlink:href="#pattern756"/><pattern id="pattern2222" patternTransform="matrix(-0.444 -.89603 -.89603 0.444 99.838 310.31)" xlink:href="#pattern2156"/><pattern id="pattern2288" patternTransform="matrix(-0.444 -.89603 -.89603 0.444 99.395 309.42)" xlink:href="#pattern2222"/><pattern id="pattern2354" patternTransform="matrix(-0.444 -.89603 -.89603 0.444 98.5 309.86)" xlink:href="#pattern2288"/><pattern id="pattern2420" patternTransform="matrix(-0.444 -.89603 -.89603 0.444 97.606 310.3)" xlink:href="#pattern2354"/><mask id="mask3766" maskUnits="userSpaceOnUse"><g id="g3768"><rect style="color:#000;enable-background:accumulate" id="rect3770" width="16" height="12" x="23" y="461" fill="#fff" transform="translate(0,-200)"/><rect style="color:#000;enable-background:accumulate" id="rect3772" width="6" height="4" x="29" y="269" fill="url(#linearGradient3774)"/></g></mask><linearGradient id="linearGradient3774" x1="34.5" x2="30.25" y1="271" y2="271" gradientUnits="userSpaceOnUse"><stop id="stop4386" offset="0" stop-color="#fff"/><stop id="stop4388" offset="1"/></linearGradient><linearGradient id="linearGradient53548" x1="-158.75" x2="-158.75" y1="115.94" y2="134.25" gradientTransform="matrix(.12083 -.12087 .12083 .12087 279.14 64.578)" gradientUnits="userSpaceOnUse"><stop id="stop4101-1-8-4-5-5-9" offset="0" stop-color="#ddd"/><stop id="stop4107-2-2-1-7-0-3" offset=".345" stop-color="#fff"/><stop id="stop4109-5-7-5-9-9-1" offset=".727" stop-color="#737373"/><stop id="stop4103-9-2-9-9-9-1" offset="1" stop-color="#bbb"/></linearGradient><radialGradient id="radialGradient53551" cx="-138.84" cy="128" r="9.127" gradientTransform="matrix(.20461 -.20466 .20590 .20595 279.63 41.311)" gradientUnits="userSpaceOnUse"><stop id="stop4121-0-5-5-8-7-8" offset="0" stop-color="#f9a9a9"/><stop id="stop4119-1-6-1-5-5-7" offset="1" stop-color="#ab5f5f"/></radialGradient><linearGradient id="linearGradient53558" x1="27.861" x2="30.432" y1="12.12" y2="14.691" gradientTransform="matrix(.63307 0 0 .63307 253.37 94.728)" gradientUnits="userSpaceOnUse"><stop id="stop2277-5-4-9" offset="0" stop-color="#fcaf3e"/><stop id="stop2279-9-4-1" offset="1" stop-color="#ce5c00"/></linearGradient><linearGradient id="linearGradient54054" x1="31" x2="31" y1="269.77" y2="262.99" gradientUnits="userSpaceOnUse"><stop id="stop4459" offset="0" stop-color="#3a7404"/><stop id="stop4461" offset="1" stop-color="#4e9a06"/></linearGradient><linearGradient id="linearGradient54056" x1="31" x2="31" y1="271.88" y2="263.06" gradientUnits="userSpaceOnUse"><stop id="stop4465" offset="0" stop-color="#8ae234"/><stop id="stop4467" offset=".309" stop-color="#73d216"/><stop id="stop4469" offset=".569" stop-color="#9fe759"/><stop id="stop4471" offset="1" stop-color="#fff"/></linearGradient><linearGradient id="linearGradient54080" x1="26.119" x2="26.119" y1="263.58" y2="271.02" gradientTransform="matrix(-1,0,0,-1,306,420)" gradientUnits="userSpaceOnUse"><stop id="stop3823" offset="0" stop-color="#fff"/><stop id="stop3825" offset="1" stop-color="#fff" stop-opacity="0"/></linearGradient></defs><metadata id="metadata4"/><g id="layer1"><g id="layer4"><g style="enable-background:new" id="g771-4-4" clip-path="url(#clipPath5818)" filter="url(#filter5858)" opacity=".75" transform="matrix(.94961 0 0 .94961 249.32 87.014)"><path id="path2334-5-8-2" fill="url(#linearGradient6424-5-0)" fill-rule="evenodd" d="m29.527 16.557-10 2.9819-0.08333 0.04323-0.0625 0.05188-1.8333 1.9021 4.9583-0.56199 0.1875-0.01729 0.125-0.05188 6.7083-1.7888v-2.5592l-0.000004-0.000002z" opacity=".4"/><path id="path2273-6-2-0" fill="url(#linearGradient6432-5-3)" fill-rule="evenodd" stroke="#ce5c00" stroke-linejoin="round" stroke-width="1.053" d="m19.961 17.191 6.4153-6.2764c1.45 0.23997 2.0565 1.1548 2.3333 2.3333l-6.4153 6.2764-2.827 0.2708 0.49364-2.6041z"/><path id="path2298-0-7-3" fill="#fff" fill-rule="evenodd" d="m19.356 19.927 1.0476-2.6281s0.75413 0.15425 1.2147 0.61302c0.4606 0.45877 0.62767 1.2221 0.62767 1.2221l-2.89 0.79302z"/><path id="path2313-6-7-7" fill="none" stroke="#fff" stroke-width="1.053" d="m20.77 17.67 8.026-7.8096c0.56733 0.092866 0.7899 0.51418 1.0412 1.0409l-7.9739 7.8616-1.718 0.46841 0.62473-1.5614z" opacity=".282"/><path id="path6416-5-1" fill="none" stroke="#e9b96e" stroke-linecap="round" stroke-width="1.053" d="m22.108 19.711-3.6667 1 1.3333-3.3333"/><path id="path2283-1-5-3" fill-rule="evenodd" d="m18.42 19.445-0.81777 2.0303 2.1149-0.59218c0.0018-0.02873 0-0.05541 0-0.0846 0-0.72381-0.58231-1.3173-1.2972-1.3536v0.000002z"/><path style="enable-background:new" id="path4113-1-6-3-3" fill="url(#radialGradient736-9-2)" stroke="#ef2929" stroke-width="1.053" d="m26.741 10.598c1.2335-0.33669 2.6127 1.1109 2.3201 2.3206l1.4764-1.4768c0.718-1.6593-0.761-2.9664-2.349-2.3509l-1.4463 1.5069z"/><path style="enable-background:new" id="path4095-8-4-6-2" fill="url(#linearGradient924)" stroke="#888a85" stroke-width="1.053" d="m25.222 12.013c1.3023-0.35549 2.7585 1.1729 2.4495 2.4502l1.5588-1.5592c0.50738-1.0734-1.375-2.9177-2.4813-2.482l-1.527 1.5911z"/></g><rect style="enable-background:accumulate" id="rect3052-2" width="48" height="48" x="516.75" y="127.75" fill="#eeeeec" display="none"/><rect style="enable-background:accumulate" id="rect3054-2" width="32" height="32" x="523.75" y="203.75" fill="#eeeeec" display="none"/><rect style="enable-background:accumulate" id="rect3056-5" width="24" height="24" x="522.75" y="253.75" fill="#fff" display="none"/><rect style="enable-background:accumulate" id="rect3058-2" width="22" height="22" x="523.75" y="254.75" fill="#eeeeec" display="none"/><rect style="enable-background:accumulate" id="rect3060-2" width="16" height="16" x="523.75" y="296.75" fill="#eeeeec" display="none"/><text style="enable-background:new" id="text3062-7" x="241.651" y="99.491" fill="#000" display="none" font-family="Bitstream Vera Sans" font-size="18.301" xml:space="preserve"><tspan id="tspan3064-1" x="241.651" y="99.491">actions</tspan></text><text id="text3066-5" x="412.721" y="99.264" fill="#000" display="none" font-family="Droid Sans" font-size="18.301" font-weight="bold" line-height="125%" xml:space="preserve" style="enable-background:new"><tspan id="tspan3068-2" x="412.721" y="99.264">list-remove</tspan></text><rect style="enable-background:accumulate" id="rect6282" width="256" height="256" x="107.01" y="-46.438" fill="#d3d7cf" display="none"/><rect style="enable-background:accumulate" id="rect6284-7" width="48" height="48" x="383.07" y="-26.442" fill="#d3d7cf" display="none"/><rect style="enable-background:accumulate" id="rect6592-5" width="32" height="32" x="390.01" y="49.558" fill="#d3d7cf" display="none"/><rect style="enable-background:accumulate" id="rect5028" width="24" height="24" x="389.01" y="99.562" fill="#eeeeec" display="none"/><rect style="enable-background:accumulate" id="rect6833-0" width="16" height="16" x="390.01" y="142.56" fill="#d3d7cf" display="none"/><rect style="enable-background:accumulate" id="rect6749-6" width="22" height="22" x="390.01" y="100.62" fill="#d3d7cf" display="none"/><text style="enable-background:new" id="context-4" x="118.881" y="-79.578" fill="#000" display="none" font-family="Bitstream Vera Sans" font-size="18.301" xml:space="preserve"><tspan id="tspan2716-7" x="118.881" y="-79.578">apps</tspan></text><text id="icon-name-8" x="289.881" y="-79.578" fill="#000" display="none" font-family="Droid Sans" font-size="18.301" font-weight="bold" line-height="125%" xml:space="preserve" style="enable-background:new"><tspan id="tspan3023-4" x="289.881" y="-79.578">accessories-text-editor</tspan></text><rect style="enable-background:new" id="rect9766" width="1" height="1" x="271.93" y="100.15" fill="#888a85" opacity=".48" rx="0" ry="0"/><path id="path2273-6-2-0-2" fill="url(#linearGradient53558)" fill-rule="evenodd" stroke="#ce5c00" stroke-linejoin="round" d="m268.28 103.34 6.092-5.9601c1.377 0.22788 1.9528 1.0966 2.2158 2.2158l-6.092 5.9601-2.6845 0.25715 0.46877-2.4729z"/><path id="path2298-0-7-3-4" fill="#fff" fill-rule="evenodd" d="m267.7 105.94 0.9948-2.4957s0.71613 0.14648 1.1535 0.58213c0.43739 0.43565 0.59605 1.1605 0.59605 1.1605l-2.7444 0.75305z"/><path id="path2313-6-7-7-7" fill="none" stroke="#fff" d="m269.05 103.79 7.6216-7.4161c0.53874 0.0882 0.7501 0.48826 0.98875 0.98845l-7.5721 7.4655-1.6314 0.4448 0.59325-1.4827z" opacity=".282"/><path id="path6416-5-1-4" fill="none" stroke="#e9b96e" stroke-linecap="round" d="m270.32 105.73-3.4819 0.94961 1.2661-3.1654"/><path id="path2283-1-5-3-1" fill-rule="evenodd" d="m266.82 105.48-0.77656 1.928 2.0084-0.56234c0.002-0.0273 0-0.0526 0-0.0803 0-0.68734-0.55296-1.2509-1.2318-1.2854z"/><path style="enable-background:new" id="path4113-1-6-3-3-8" fill="url(#radialGradient53551)" stroke="#ef2929" d="m274.72 97.078c1.1713-0.31972 2.4811 1.0549 2.2032 2.2037l1.402-1.4023c0.6811-1.5756-0.72307-2.8168-2.2318-2.2323l-1.3734 1.431z"/><path style="enable-background:new" id="path4095-8-4-6-2-5" fill="url(#linearGradient53548)" stroke="#888a85" d="m273.28 98.422c1.2367-0.33757 2.6194 1.1138 2.3261 2.3268l1.4802-1.4807c0.48182-1.0193-1.3057-2.7706-2.3563-2.357l-1.45 1.5109z"/><rect id="rect2975" width="0" height="0" x="127.75" y="198.38" fill="url(#pattern53472)" transform="matrix(-0.444 -.89603 -.89603 0.444 0 0)"/><rect id="rect14614" width="0" height="0" x="-161.78" y="6.993" fill="url(#pattern52282)" transform="matrix(-.94754 -.31963 -.31963 .94754 0 0)"/><rect style="enable-background:accumulate" id="rect6284" width="48" height="48" x="116.75" y="127.75" fill="#eeeeec" display="none"/><rect style="enable-background:accumulate" id="rect6592" width="32" height="32" x="123.75" y="203.75" fill="#eeeeec" display="none"/><rect style="enable-background:accumulate" id="rect6749-1-1" width="24" height="24" x="122.75" y="253.75" fill="#fff" display="none"/><rect style="enable-background:accumulate" id="rect6749" width="22" height="22" x="123.75" y="254.75" fill="#eeeeec" display="none"/><rect style="enable-background:accumulate" id="rect6833" width="16" height="16" x="123.75" y="296.75" fill="#eeeeec" display="none"/><text style="enable-background:new" id="context" x="-158.349" y="99.491" fill="#000" display="none" font-family="Bitstream Vera Sans" font-size="18.301" xml:space="preserve"><tspan id="tspan2716" x="-158.349" y="99.491">actions</tspan></text><text id="icon-name" x="12.721" y="99.264" fill="#000" display="none" font-family="Droid Sans" font-size="18.301" font-weight="bold" line-height="125%" xml:space="preserve" style="enable-background:new"><tspan id="tspan3023" x="12.721" y="99.264">list-add</tspan></text><rect style="enable-background:accumulate" id="rect4235" width="48" height="48" x="434.75" y="151" fill="#eeeeec" display="none"/><rect style="enable-background:accumulate" id="rect4237" width="32" height="32" x="441.75" y="217" fill="#eeeeec" display="none"/><rect style="enable-background:accumulate" id="rect4239" width="22" height="22" x="441.75" y="268" fill="#eeeeec" display="none"/><rect style="enable-background:accumulate" id="rect4241" width="16" height="16" x="441.75" y="310" fill="#eeeeec" display="none"/><text style="enable-background:new" id="text4243" x="709.721" y="192.514" fill="#000" display="none" font-family="Bitstream Vera Sans" font-size="18.301" xml:space="preserve"><tspan id="tspan4245" x="709.721" y="192.514">actions</tspan></text><text id="text4247" x="790.721" y="192.514" fill="#000" display="none" font-family="Droid Sans" font-size="18.301" font-weight="bold" line-height="125%" xml:space="preserve" style="enable-background:new"><tspan id="tspan4249" x="790.721" y="192.514">edit-redo</tspan></text><rect style="enable-background:accumulate" id="rect4251" width="24" height="24" x="440.75" y="267" fill="#eeeeec" display="none"/><g id="g54085" fill="none" stroke-linecap="round"><g id="g4303" mask="url(#mask3766)" transform="matrix(-1 0 0 -1 306 420)"><path style="color:#000;enable-background:accumulate" id="path4305" stroke="url(#linearGradient54054)" stroke-width="3" d="m27.5 262.5-3 3 3 3m-3-3h10c1.6569 0 3 1.3432 3 3 0 1.6569-1.3431 3-3 3h-4"/><path style="color:#000;enable-background:accumulate" id="path4307" stroke="url(#linearGradient54056)" d="m27.5 262.5-3 3 3 3m-3-3h10c1.6569 0 3 1.3431 3 3s-1.3431 3-3 3h-4"/></g><path style="color:#000;enable-background:accumulate" id="path4309" stroke="url(#linearGradient54080)" d="m278.5 157.5 3-3-3-3" opacity=".6"/></g><rect id="rect54076" width="16" height="12" x="267" y="147" opacity="0"/><g id="layer7" fill="#eeeeec" display="none" transform="translate(358.75 -249)"><rect style="enable-background:new" id="rect11612" width="256" height="256" x="10" y="130" display="inline"/><rect style="enable-background:new" id="rect11612-3" width="256" height="256" x="280" y="130" display="inline"/></g></g><rect style="enable-background:accumulate" id="rect3052" width="48" height="48" x="646.5" y="112" fill="#eeeeec" display="none"/><rect style="enable-background:accumulate" id="rect3054" width="32" height="32" x="653.5" y="188" fill="#eeeeec" display="none"/><rect style="enable-background:accumulate" id="rect3056" width="24" height="24" x="652.5" y="238" fill="#fff" display="none"/><rect style="enable-background:accumulate" id="rect3058" width="22" height="22" x="653.5" y="239" fill="#eeeeec" display="none"/><rect style="enable-background:accumulate" id="rect3060" width="16" height="16" x="653.5" y="281" fill="#eeeeec" display="none"/><text style="enable-background:new" id="text3062" x="371.401" y="83.741" fill="#000" display="none" font-family="Bitstream Vera Sans" font-size="18.301" xml:space="preserve"><tspan id="tspan3064" x="371.401" y="83.741">actions</tspan></text><text id="text3066" x="542.471" y="83.514" fill="#000" display="none" font-family="Droid Sans" font-size="18.301" font-weight="bold" line-height="125%" xml:space="preserve" style="enable-background:new"><tspan id="tspan3068" x="542.471" y="83.514">list-remove</tspan></text><g id="g5826" stroke-linecap="round" stroke-linejoin="round" opacity=".75" transform="translate(-93,-110)"><path style="color:#000;enable-background:accumulate" id="rect3969-3" fill="#ef2929" stroke="#a40000" d="m361.5 242.5c-0.554 0-1 0.446-1 1v1c0 0.554 0.446 1 1 1h9c0.554 0 1-0.446 1-1v-1c0-0.554-0.446-1-1-1h-9z" display="block"/><path style="color:#000;enable-background:accumulate" id="path4046-1" fill="none" stroke="#fff" d="m370.5 243.5h-9v1" display="block" opacity=".3"/></g><rect style="enable-background:accumulate" id="rect6284-2" width="48" height="48" x="246.5" y="112" fill="#eeeeec" display="none"/><rect style="enable-background:accumulate" id="rect6592-3" width="32" height="32" x="253.5" y="188" fill="#eeeeec" display="none"/><rect style="enable-background:accumulate" id="rect6749-1" width="24" height="24" x="252.5" y="238" fill="#fff" display="none"/><rect style="enable-background:accumulate" id="rect6749-9" width="22" height="22" x="253.5" y="239" fill="#eeeeec" display="none"/><rect style="enable-background:accumulate" id="rect6833-9" width="16" height="16" x="253.5" y="281" fill="#eeeeec" display="none"/><text style="enable-background:new" id="context-7" x="-28.599" y="83.741" fill="#000" display="none" font-family="Bitstream Vera Sans" font-size="18.301" xml:space="preserve"><tspan id="tspan2716-0" x="-28.599" y="83.741">actions</tspan></text><text id="icon-name-3" x="142.471" y="83.514" fill="#000" display="none" font-family="Droid Sans" font-size="18.301" font-weight="bold" line-height="125%" xml:space="preserve" style="enable-background:new"><tspan id="tspan3023-9" x="142.471" y="83.514">list-add</tspan></text><g id="g5822" stroke-linecap="round" stroke-linejoin="round" opacity=".75" transform="translate(-75,-125)"><path style="color:#000;enable-background:accumulate" id="rect3969" fill="#6ebd21" stroke="#3e7a05" d="m347.5 238.5c-0.554 0-1 0.446-1 1v3h-3c-0.554 0-1 0.446-1 1v1c0 0.554 0.446 1 1 1h3v3c0 0.554 0.446 1 1 1h1c0.554 0 1-0.446 1-1v-3h3c0.554 0 1-0.446 1-1v-1c0-0.554-0.446-1-1-1h-3v-3c0-0.554-0.446-1-1-1h-1z" display="block"/><path style="color:#000;enable-background:accumulate" id="path4046-6" fill="none" stroke="#fff" d="m348.5 239.5h-1v3c-0.005 0.52235-0.47765 0.99549-1 1h-3v1m9-1h-3m-2 2v3" display="block" opacity=".3"/></g></g></svg>