<svg xmlns="http://www.w3.org/2000/svg" xmlns:xlink="http://www.w3.org/1999/xlink" id="svg9662" width="24" height="24" version="1.1"><defs id="defs3"><filter id="filter25117" width="1.122" height="1.647" x="-.061" y="-.323" color-interpolation-filters="sRGB"><feGaussianBlur id="feGaussianBlur25119" stdDeviation=".48"/></filter><linearGradient id="linearGradient4343" x1="72.499" x2="82.402" y1="13" y2="13" gradientUnits="userSpaceOnUse"><stop id="stop4290" offset="0" stop-color="#8cb4e0"/><stop id="stop4292" offset="1" stop-color="#4686cd"/></linearGradient><linearGradient id="linearGradient4345" x1="701.1" x2="711.7" y1="221.56" y2="221.56" gradientUnits="userSpaceOnUse"><stop id="stop4298" offset="0" stop-color="#265990"/><stop id="stop4300" offset="1" stop-color="#1c426b"/></linearGradient></defs><metadata id="metadata4"/><g id="layer1" transform="translate(0 -1028.4)"><g id="layer4" transform="translate(-1153.8 891.94)"><g id="layer7"><rect id="rect25208" width="24" height="24" x="1154.8" y="137.43" opacity="0"/><path id="path5933-2" d="m322.69 195.97c0 0.98376-4.2253 1.7812-9.4375 1.7812s-9.4375-0.79749-9.4375-1.7812c0-0.98376 4.2253-1.7812 9.4375-1.7812s9.4375 0.79749 9.4375 1.7812z" filter="url(#filter25117)" opacity=".316" transform="matrix(.94246 0 0 1.3638 871.6 -109.84)"/><g id="g7688" transform="matrix(1.2885 0 0 1.2885 766.36 -143.67)" style="enable-background:new"><path id="path4281" fill="url(#linearGradient4343)" stroke="#285b93" stroke-linecap="round" d="m80.5 1.5c-4.9706 0-10 1.1193-10 2.5 0 0.81054 2 16.277 2 17 0 1.3807 3.5817 2.5 8 2.5s8-1.1193 8-2.5c0-0.82222 2-16.106 2-17 0-1.3807-5.0294-2.5-10-2.5z" transform="matrix(.77609 0 0 .77609 247.94 216.6)"/><path id="path4180-8" fill="url(#linearGradient4345)" d="m711.7 221.56c0 0.68342-2.3744 1.2374-5.3033 1.2374s-5.3033-0.55402-5.3033-1.2374c0-0.68341 2.3744-1.2374 5.3033-1.2374s5.3033 0.55402 5.3033 1.2374z" transform="matrix(1.0976 0 0 .94077 -464.89 11.659)" style="enable-background:new"/><path id="path4263" fill="none" stroke="#fff" stroke-linecap="round" stroke-width="1.398" d="m82.438 13.188c0 1.4152-1.1473 2.5625-2.5625 2.5625s-2.5625-1.1473-2.5625-2.5625 1.1473-2.5625 2.5625-2.5625 2.5625 1.1473 2.5625 2.5625z" transform="matrix(.83287 0 0 .83287 243.89 216.09)"/><path id="path4306" fill="none" stroke="#fff" stroke-width=".64" d="m711.7 221.56c0 0.68342-2.3744 1.2374-5.3033 1.2374s-5.3033-0.55402-5.3033-1.2374c0-0.68341 2.3744-1.2374 5.3033-1.2374s5.3033 0.55402 5.3033 1.2374z" opacity=".25" transform="matrix(1.1707 0 0 1.2543 -516.59 -57.816)" style="enable-background:new"/><path id="path4310" fill="none" stroke="#285b93" stroke-linecap="round" stroke-width=".455" d="m711.33 222.01c-1.0769 0.63555-4.1579 0.94707-6.8817 0.6958-1.346-0.12418-2.4161-0.37133-2.9619-0.68414" opacity=".5" transform="matrix(1.3171 0 0 2.2048 -619.96 -258.69)" style="enable-background:new"/></g></g></g><g id="layer9" fill="#fff" stroke="#000" stroke-linecap="round" stroke-linejoin="round" display="none" transform="translate(-1687.8 -118.06)"><path id="path11071" stroke-width=".852" d="m729.88 60.625a14.688 5.9375 0 1 1 -29.375 0 14.688 5.9375 0 1 1 29.375 0z" display="inline" opacity=".5" transform="matrix(1.2596 0 0 1.0947 -22.831 -6.3684)" style="enable-background:new"/><path id="path11073" stroke-width=".852" d="m729.88 60.625a14.688 5.9375 0 1 1 -29.375 0 14.688 5.9375 0 1 1 29.375 0z" display="inline" opacity=".5" transform="matrix(1.2596 0 0 1.0947 -22.831 -3.3684)" style="enable-background:new"/><path id="path11075" stroke-width="1.021" d="m729.88 60.625a14.688 5.9375 0 1 1 -29.375 0 14.688 5.9375 0 1 1 29.375 0z" display="inline" opacity=".5" transform="matrix(1.0553 0 0 .90859 173.25 35.022)" style="enable-background:new"/><path id="path11084" stroke-width=".984" d="m729.88 60.625a14.688 5.9375 0 1 1 -29.375 0 14.688 5.9375 0 1 1 29.375 0z" display="inline" opacity=".5" transform="matrix(1.0553 0 0 .97833 123.25 30.38)" style="enable-background:new"/><path id="path11086" stroke-width=".969" d="m729.88 60.625a14.688 5.9375 0 1 1 -29.375 0 14.688 5.9375 0 1 1 29.375 0z" display="inline" opacity=".5" transform="matrix(1.0894 0 0 .97833 98.901 27.38)" style="enable-background:new"/></g></g></svg>