<svg xmlns="http://www.w3.org/2000/svg" xmlns:svg="http://www.w3.org/2000/svg" xmlns:xlink="http://www.w3.org/1999/xlink" id="svg2" width="256" height="256" version="1.1"><defs id="defs4"><linearGradient id="linearGradient4629"><stop id="stop4631" offset="0" style="stop-color:#ffe9d4;stop-opacity:1"/><stop id="stop4633" offset="1" style="stop-color:#e68c05;stop-opacity:1"/></linearGradient><linearGradient id="linearGradient16589"><stop style="stop-color:#0d0800;stop-opacity:1" id="stop16591" offset="0"/><stop style="stop-color:#0d0800;stop-opacity:0" id="stop16593" offset="1"/></linearGradient><linearGradient id="linearGradient16186"><stop style="stop-color:#0d0800;stop-opacity:1" id="stop16188" offset="0"/><stop style="stop-color:#0d0800;stop-opacity:0" id="stop16190" offset="1"/></linearGradient><linearGradient id="linearGradient15420"><stop style="stop-color:#995106;stop-opacity:1" id="stop15422" offset="0"/><stop style="stop-color:#d47008;stop-opacity:1" id="stop15424" offset="1"/></linearGradient><linearGradient id="linearGradient15406"><stop style="stop-color:#fff;stop-opacity:1" id="stop15408" offset="0"/><stop style="stop-color:#fff;stop-opacity:0" id="stop15410" offset="1"/></linearGradient><linearGradient id="linearGradient15319"><stop style="stop-color:#d86901;stop-opacity:1" id="stop15321" offset="0"/><stop style="stop-color:#fbb854;stop-opacity:1" id="stop15323" offset="1"/></linearGradient><linearGradient id="linearGradient15269"><stop style="stop-color:#e57909;stop-opacity:1" id="stop15271" offset="0"/><stop style="stop-color:#995106;stop-opacity:1" id="stop15273" offset="1"/></linearGradient><linearGradient id="linearGradient15259"><stop style="stop-color:#fff;stop-opacity:1" id="stop15261" offset="0"/><stop style="stop-color:#fff;stop-opacity:0" id="stop15263" offset="1"/></linearGradient><linearGradient id="linearGradient15251"><stop style="stop-color:#fff;stop-opacity:1" id="stop15253" offset="0"/><stop style="stop-color:#fff;stop-opacity:0" id="stop15255" offset="1"/></linearGradient><linearGradient id="linearGradient15209"><stop style="stop-color:#fbb854;stop-opacity:1" id="stop15211" offset="0"/><stop style="stop-color:#f57f09;stop-opacity:1" id="stop15213" offset="1"/></linearGradient><filter id="filter15758-4" width="1.203" height="1.212" x="-.101" y="-.106" color-interpolation-filters="sRGB"><feGaussianBlur id="feGaussianBlur15760-4" stdDeviation="4.635"/></filter><linearGradient id="linearGradient15762-5"><stop id="stop15764-4" offset="0" style="stop-color:#fff;stop-opacity:1"/><stop id="stop15766-7" offset="1" style="stop-color:#fff;stop-opacity:0"/></linearGradient><linearGradient id="linearGradient5820-1-2-5"><stop style="stop-color:#fff;stop-opacity:1" id="stop5822-0-2-6" offset="0"/><stop style="stop-color:#fff;stop-opacity:0" id="stop5824-8-1-9" offset="1"/></linearGradient><filter id="filter4379" color-interpolation-filters="sRGB"><feGaussianBlur id="feGaussianBlur4381" stdDeviation=".9"/></filter><linearGradient id="linearGradient15215" x1="274.711" x2="325.058" y1="521.501" y2="534.992" gradientTransform="translate(-198,-359)" gradientUnits="userSpaceOnUse" xlink:href="#linearGradient15209"/><linearGradient id="linearGradient15257" x1="431.531" x2="243.227" y1="521.39" y2="554.045" gradientUnits="userSpaceOnUse" xlink:href="#linearGradient15251"/><radialGradient id="radialGradient15267" cx="335.088" cy="515.761" r="24.969" fx="335.088" fy="515.761" gradientTransform="matrix(3.152295,0.12743852,-0.20366307,5.037771,-583.19945,-2194.6108)" gradientUnits="userSpaceOnUse" xlink:href="#linearGradient15259"/><linearGradient id="linearGradient15275" x1="269.293" x2="320.939" y1="550.356" y2="557.251" gradientTransform="translate(-200,-360)" gradientUnits="userSpaceOnUse" xlink:href="#linearGradient15269"/><radialGradient id="radialGradient15309" cx="239" cy="51" r="5" fx="239" fy="51" gradientUnits="userSpaceOnUse" xlink:href="#linearGradient5820-1-2-5"/><radialGradient id="radialGradient15311" cx="239" cy="51" r="5" fx="239" fy="51" gradientUnits="userSpaceOnUse" xlink:href="#linearGradient5820-1-2-5"/><radialGradient id="radialGradient15313" cx="179.525" cy="178.164" r="68.868" fx="179.525" fy="178.164" gradientTransform="matrix(1.30883,0.778447,-0.343019,0.576472,-3.48119,-69.9836)" gradientUnits="userSpaceOnUse" xlink:href="#linearGradient15762-5"/><radialGradient id="radialGradient15315" cx="239" cy="51" r="5" fx="239" fy="51" gradientUnits="userSpaceOnUse" xlink:href="#linearGradient5820-1-2-5"/><radialGradient id="radialGradient15317" cx="239" cy="51" r="5" fx="239" fy="51" gradientUnits="userSpaceOnUse" xlink:href="#linearGradient5820-1-2-5"/><linearGradient id="linearGradient15325" x1="270" x2="429.01" y1="521.077" y2="520.444" gradientTransform="translate(-200,-360)" gradientUnits="userSpaceOnUse" xlink:href="#linearGradient15319"/><linearGradient id="linearGradient15412" x1="505" x2="300" y1="516.362" y2="582.362" gradientUnits="userSpaceOnUse" xlink:href="#linearGradient15406"/><linearGradient id="linearGradient15426" x1="270" x2="429.01" y1="521.077" y2="520.444" gradientTransform="translate(-200,-360)" gradientUnits="userSpaceOnUse" xlink:href="#linearGradient15420"/><filter id="filter16166" width="1.301" height="1.076" x="-.15" y="-.038" color-interpolation-filters="sRGB"><feGaussianBlur id="feGaussianBlur16168" stdDeviation="3.193"/></filter><filter id="filter16202" color-interpolation-filters="sRGB"><feGaussianBlur id="feGaussianBlur16204" stdDeviation="2.013"/></filter><linearGradient id="linearGradient16595" x1="270.158" x2="356.925" y1="411.944" y2="210.438" gradientTransform="translate(-199.5,-72.75)" gradientUnits="userSpaceOnUse" xlink:href="#linearGradient16589"/><linearGradient id="linearGradient16634" x1="94.179" x2="393.263" y1="558.412" y2="585.444" gradientTransform="translate(-200,-360)" gradientUnits="userSpaceOnUse" xlink:href="#linearGradient16186"/><filter id="filter16660" color-interpolation-filters="sRGB"><feGaussianBlur id="feGaussianBlur16662" stdDeviation=".947"/></filter><linearGradient id="linearGradient17044" x1="240.886" x2="360.827" y1="454.941" y2="227.05" gradientTransform="translate(-199.5,-72.75)" gradientUnits="userSpaceOnUse" xlink:href="#linearGradient16589"/><linearGradient id="linearGradient17046" x1="270" x2="429.01" y1="521.077" y2="520.444" gradientTransform="matrix(0.18117477,0,0,0.1809007,307.67453,10.548208)" gradientUnits="userSpaceOnUse" xlink:href="#linearGradient15319"/><linearGradient id="linearGradient17048" x1="270" x2="429.01" y1="521.077" y2="520.444" gradientTransform="matrix(0.18117477,0,0,0.1809007,307.67453,10.548208)" gradientUnits="userSpaceOnUse" xlink:href="#linearGradient15420"/><linearGradient id="linearGradient17050" x1="94.179" x2="393.263" y1="558.412" y2="585.444" gradientTransform="translate(-200,-360)" gradientUnits="userSpaceOnUse" xlink:href="#linearGradient16186"/><linearGradient id="linearGradient17052" x1="505" x2="300" y1="516.362" y2="582.362" gradientTransform="matrix(0.18117476,0,0,0.1809007,307.67452,10.548213)" gradientUnits="userSpaceOnUse" xlink:href="#linearGradient15406"/><linearGradient id="linearGradient17054" x1="274.711" x2="325.058" y1="521.501" y2="534.992" gradientTransform="matrix(0.18117477,0,0,0.1809007,308.03689,10.72911)" gradientUnits="userSpaceOnUse" xlink:href="#linearGradient15209"/><linearGradient id="linearGradient17056" x1="269.293" x2="320.939" y1="550.356" y2="557.251" gradientTransform="matrix(0.18117477,0,0,0.1809007,307.67453,10.548208)" gradientUnits="userSpaceOnUse" xlink:href="#linearGradient15269"/><radialGradient id="radialGradient17058" cx="335.088" cy="515.761" r="24.969" fx="335.088" fy="515.761" gradientTransform="matrix(0.57111629,0.02305372,-0.03689861,0.9113363,202.0135,-386.45842)" gradientUnits="userSpaceOnUse" xlink:href="#linearGradient15259"/><linearGradient id="linearGradient17060" x1="431.531" x2="243.227" y1="521.39" y2="554.045" gradientTransform="matrix(0.18117476,0,0,0.1809007,307.67452,10.548213)" gradientUnits="userSpaceOnUse" xlink:href="#linearGradient15251"/><linearGradient id="linearGradient4501" x1="240.886" x2="360.827" y1="454.941" y2="227.05" gradientTransform="translate(-199.5,-72.75)" gradientUnits="userSpaceOnUse" xlink:href="#linearGradient16589"/><linearGradient id="linearGradient4503" x1="302.941" x2="429.01" y1="518.074" y2="520.444" gradientTransform="matrix(0.11806336,0,0,0.11774546,323.73069,114.10022)" gradientUnits="userSpaceOnUse" xlink:href="#linearGradient15319"/><linearGradient id="linearGradient4505" x1="302.941" x2="429.01" y1="518.074" y2="520.444" gradientTransform="matrix(0.11806336,0,0,0.11774546,323.73069,114.10022)" gradientUnits="userSpaceOnUse" xlink:href="#linearGradient15420"/><linearGradient id="linearGradient4507" x1="130.114" x2="393.263" y1="538.894" y2="585.444" gradientTransform="translate(-200,-360)" gradientUnits="userSpaceOnUse" xlink:href="#linearGradient16186"/><linearGradient id="linearGradient4509" x1="505" x2="300" y1="516.362" y2="582.362" gradientTransform="matrix(0.11806336,0,0,0.11774546,323.73069,114.10023)" gradientUnits="userSpaceOnUse" xlink:href="#linearGradient15406"/><linearGradient id="linearGradient4511" x1="274.711" x2="325.058" y1="521.501" y2="534.992" gradientTransform="matrix(0.11806336,0,0,0.11774546,323.96682,114.21796)" gradientUnits="userSpaceOnUse" xlink:href="#linearGradient15209"/><linearGradient id="linearGradient4513" x1="269.293" x2="320.939" y1="550.356" y2="557.251" gradientTransform="matrix(0.11806336,0,0,0.11774546,323.73069,114.10022)" gradientUnits="userSpaceOnUse" xlink:href="#linearGradient15269"/><radialGradient id="radialGradient4515" cx="335.088" cy="515.761" r="24.969" fx="335.088" fy="515.761" gradientTransform="matrix(0.37217053,0.01500531,-0.02404515,0.59317467,254.8762,-144.30524)" gradientUnits="userSpaceOnUse" xlink:href="#linearGradient15259"/><linearGradient id="linearGradient4517" x1="431.531" x2="243.227" y1="521.39" y2="554.045" gradientTransform="matrix(0.11806336,0,0,0.11774546,323.73069,114.10023)" gradientUnits="userSpaceOnUse" xlink:href="#linearGradient15251"/><linearGradient id="linearGradient4607" x1="505" x2="300" y1="516.362" y2="582.362" gradientTransform="matrix(0.05525225,0,0,0.0563539,339.75681,196.0811)" gradientUnits="userSpaceOnUse" xlink:href="#linearGradient15406"/><linearGradient id="linearGradient4609" x1="274.711" x2="438.638" y1="521.501" y2="487.938" gradientTransform="matrix(0.05525225,0,0,0.0563539,339.86731,196.13745)" gradientUnits="userSpaceOnUse" xlink:href="#linearGradient15209"/><radialGradient id="radialGradient4613" cx="335.088" cy="515.761" r="24.969" fx="335.088" fy="515.761" gradientTransform="matrix(0.17417138,0.00718166,-0.01125284,0.28389804,307.53372,72.40622)" gradientUnits="userSpaceOnUse" xlink:href="#linearGradient15259"/><linearGradient id="linearGradient4615" x1="381.94" x2="243.227" y1="493.157" y2="554.045" gradientTransform="matrix(0.05525225,0,0,0.0563539,339.75681,196.0811)" gradientUnits="userSpaceOnUse" xlink:href="#linearGradient15251"/><radialGradient id="radialGradient4627" cx="380.176" cy="212.607" r="6.497" fx="380.176" fy="212.607" gradientTransform="matrix(0.99990619,0.01369735,-0.02885896,2.1067036,-8.8218402,-231.22794)" gradientUnits="userSpaceOnUse" xlink:href="#linearGradient4629"/></defs><metadata id="metadata7"/><g id="layer1" transform="translate(-48,-43.362183)"><rect style="opacity:0;fill:#ef2929;fill-opacity:1;stroke:none" id="rect4469" width="256" height="256" x="48" y="43.362"/><rect id="rect4471" width="48" height="48" x="353" y="83.362" style="opacity:0;fill:#ef2929;fill-opacity:1;stroke:none"/><path style="opacity:.64224135;fill:url(#linearGradient16595);fill-opacity:1;stroke:none;filter:url(#filter16660)" id="path16587" d="m 351.78846,182.36536 -87.69157,53.54944 c -3.8007,2.2981 8.13172,4.24263 3.44714,6.80589 l -33.66578,23.94152 c -3.75,3.25 -12.97141,2.48552 -12.97141,2.48552 l -91.24863,-51.52932 99.91347,-105.21499 z"/><path id="path6918" d="m 70.59005,45.86218 136.22918,21.96554 c 8.2212,1.51256 9.66871,7.62177 9.66871,12.22136 l 0,106.36243 c 0,7.32526 12.0079,4.24215 12.0079,12.0524 l 0.0141,64.66333 c 0,7.51601 -12.92872,0.60819 -12.92872,5.82984 0,0 0.89763,6.99225 -2.93624,5.96497 L 70.5,241.30078 z" style="fill:url(#linearGradient15325);fill-opacity:1;stroke:url(#linearGradient15426);stroke-width:1;stroke-linecap:round;stroke-linejoin:round;stroke-miterlimit:4;stroke-opacity:1;stroke-dasharray:none"/><path style="opacity:.58620689;fill:url(#linearGradient16634);fill-opacity:1;stroke:none;filter:url(#filter16202)" id="path16172" d="m 74.34375,48.4375 0,194.25 35.15625,7.78125 -0.21875,13.59375 c 0,0 -5.78125,41.21875 10.21875,35.21875 l 75.03125,-33.84375 -6.34375,-1.53125 0,-173.28125 L 74.34375,48.4375 z"/><path style="fill:none;stroke:url(#linearGradient15412);stroke-width:1.5;stroke-linecap:round;stroke-linejoin:round;stroke-miterlimit:4;stroke-opacity:1;stroke-dasharray:none" id="path15402" d="m 272.15625,407.6875 -0.0937,192.375 140.96875,33.34375 a 1.5658548,1.5658548 0 0 1 0.0312,0.0312 c 0.54406,0.14578 0.38194,0.10141 0.5,-0.0312 0.11806,-0.13266 0.36559,-0.65724 0.46875,-1.3125 0.20632,-1.31051 0,-2.9375 0,-2.9375 a 1.5658548,1.5658548 0 0 1 0,-0.1875 c 0,-0.9752 0.38454,-1.96767 1.0625,-2.59375 0.67796,-0.62608 1.47504,-0.86843 2.25,-1 1.54992,-0.26315 3.21424,-0.095 4.78125,-0.0312 1.56701,0.0638 3.0171,-0.002 3.78125,-0.3125 0.76415,-0.31086 1.03125,-0.47534 1.03125,-1.90625 l 0,-64.65625 c 0,-1.55163 -0.46808,-2.24344 -1.3125,-2.9375 -0.84442,-0.69406 -2.19616,-1.2539 -3.6875,-1.8125 -1.49134,-0.5586 -3.12607,-1.10825 -4.53125,-2.1875 -1.40518,-1.07925 -2.46875,-2.86621 -2.46875,-5.125 l 0,-106.34375 c 0,-2.13342 -0.35426,-4.52839 -1.53125,-6.46875 -1.17357,-1.93472 -3.10896,-3.55562 -6.84375,-4.25 l -0.0312,0 -134.375,-21.65625 z" transform="translate(-200,-360)"/><path id="path16144" d="m 273.50001,408.89343 47.64336,36.99429 c 3.32889,2.77408 3.35664,7.51674 3.35664,7.51674 l 0,113.02022 c 0,3.7034 -5.5,3.12222 -5.5,6.875 l -0.4146,36.6858 -45.05507,-15.66446 z" transform="matrix(0.97980846,0,0,1,-190.66982,-360)" style="opacity:.28017243;fill:#0d0800;fill-opacity:1;stroke:none;filter:url(#filter16166)"/><path style="fill:url(#linearGradient15215);fill-opacity:1;stroke:url(#linearGradient15275);stroke-linecap:round;stroke-linejoin:round;stroke-opacity:1" id="rect6147" d="m 70.50001,45.89343 47.64336,36.99429 c 3.32889,2.77408 3.35664,7.51674 3.35664,7.51674 l 0,113.02022 c 0,3.7034 -5.5,3.12222 -5.5,6.875 l -0.4146,85.6858 c 0,3.50056 -2.07176,6.52086 -6.9394,-0.0413 L 70.53034,241.32102 z"/><rect style="fill:#eeeeec;fill-opacity:1;fill-rule:nonzero;stroke:none;stroke-width:2;marker:none;visibility:visible;display:none;overflow:visible;enable-background:accumulate" id="rect3589" width="120" height="24" x="929.84" y="645.945"/><rect id="rect4698" width="48" height="48" x="919.84" y="429.944" style="fill:#eeeeec;fill-opacity:1;fill-rule:nonzero;stroke:none;stroke-width:2;marker:none;visibility:visible;display:none;overflow:visible;enable-background:accumulate"/><rect id="rect4700" width="32" height="32" x="926.84" y="505.944" style="fill:#eeeeec;fill-opacity:1;fill-rule:nonzero;stroke:none;stroke-width:2;marker:none;visibility:visible;display:none;overflow:visible;enable-background:accumulate"/><rect id="rect4702" width="22" height="22" x="926.84" y="556.945" style="fill:#eeeeec;fill-opacity:1;fill-rule:nonzero;stroke:none;stroke-width:2;marker:none;visibility:visible;display:none;overflow:visible;enable-background:accumulate"/><rect id="rect4704" width="16" height="16" x="926.84" y="598.945" style="fill:#eeeeec;fill-opacity:1;fill-rule:nonzero;stroke:none;stroke-width:2;marker:none;visibility:visible;display:none;overflow:visible;enable-background:accumulate"/><rect id="rect4706" width="24" height="24" x="925.84" y="555.945" style="fill:#eeeeec;fill-opacity:1;fill-rule:nonzero;stroke:none;stroke-width:2;marker:none;visibility:visible;display:none;overflow:visible;enable-background:accumulate"/><rect id="rect4708" width="256" height="256" x="643.84" y="407.944" style="fill:#eeeeec;fill-opacity:1;fill-rule:nonzero;stroke:none;stroke-width:2;marker:none;visibility:visible;display:none;overflow:visible;enable-background:accumulate"/><text id="text4710" x="644.81" y="401.458" xml:space="preserve" style="font-size:18.30070686px;font-style:normal;font-weight:400;fill:#000;fill-opacity:1;stroke:none;display:none;enable-background:new;font-family:Bitstream Vera Sans"><tspan id="tspan4712" x="644.81" y="401.458">places</tspan></text><text id="text4714" x="765.81" y="401.458" xml:space="preserve" style="font-size:18.30070686px;font-style:normal;font-variant:normal;font-weight:700;font-stretch:normal;text-align:start;line-height:125%;writing-mode:lr-tb;text-anchor:start;fill:#000;fill-opacity:1;stroke:none;display:none;enable-background:new;font-family:Droid Sans;-inkscape-font-specification:Droid Sans Bold"><tspan id="tspan4716" x="765.81" y="401.458">sparkleshare</tspan></text><rect style="fill:#ededed;fill-opacity:1;fill-rule:nonzero;stroke:none;stroke-width:2;marker:none;visibility:visible;display:none;overflow:visible;enable-background:accumulate" id="rect22378" width="22" height="22" x="956.84" y="556.945"/><rect style="fill:#ededed;fill-opacity:1;fill-rule:nonzero;stroke:none;stroke-width:2;marker:none;visibility:visible;display:none;overflow:visible;enable-background:accumulate" id="rect22380" width="24" height="24" x="955.84" y="555.945"/><rect id="rect12657-5" width="2" height="0" x="1299.84" y="569.945" rx="0" ry="0" style="color:#000;fill:#888a85;fill-opacity:1;fill-rule:nonzero;stroke:none;stroke-width:1;marker:none;visibility:visible;display:inline;overflow:visible;enable-background:new"/><use id="use3340" width="500" height="400" x="0" y="0" transform="translate(628.84498,629.94429)" xlink:href="#g3326" style="display:inline;enable-background:new"/><path style="opacity:.05;fill:none;stroke:#000;stroke-width:1px;stroke-linecap:round;stroke-linejoin:miter;stroke-opacity:1" id="path15235" d="m 73.5,52.86218 0,187.93507"/><path id="path15237" d="m 76.5,55.86218 0,189.07263" style="opacity:.05;fill:none;stroke:#000;stroke-width:1px;stroke-linecap:round;stroke-linejoin:miter;stroke-opacity:1"/><path style="opacity:.05;fill:none;stroke:#000;stroke-width:1px;stroke-linecap:round;stroke-linejoin:miter;stroke-opacity:1" id="path15239" d="m 79.5,57.86218 0,191.96724"/><path style="fill:url(#radialGradient15267);fill-opacity:1;stroke:url(#linearGradient15257);stroke-width:1.5;stroke-linecap:round;stroke-linejoin:round;stroke-miterlimit:4;stroke-opacity:1;stroke-dasharray:none" id="path15247" d="m 271.90625,408.75 0.0312,192.125 37.84375,54.21875 0.0312,0.0625 c 1.13323,1.51587 2.09305,2.46736 2.75,2.90625 0.66795,0.44624 0.92157,0.35913 0.96875,0.34375 0.0472,-0.0154 0.19841,-0.0926 0.375,-0.53125 0.17659,-0.43862 0.28125,-1.13705 0.28125,-1.875 l 0.40625,-85.6875 c 0,-1.27823 0.57507,-2.36636 1.28125,-3.09375 0.70618,-0.72739 1.49864,-1.16836 2.1875,-1.5625 0.68886,-0.39414 1.26895,-0.76308 1.59375,-1.09375 0.3248,-0.33067 0.4375,-0.54372 0.4375,-1.125 l 0,-113.03125 c 0,0 -0.11459,-4.19445 -2.84375,-6.46875 L 271.90625,408.75 z" transform="translate(-200,-360)"/><g id="g15277" transform="matrix(0,1,-0.2426915,-0.2156822,225.89646,-486.60672)"><path id="path15279" d="m 771.46968,500.65111 c -1.8678,0.24167 -3.5157,1.71451 -3.9769,3.54822 l -7.9492,23.95046 -1.7625,0.89368 -24.294,0 c -1.3579,0 -2.6831,0.70979 -3.5342,1.77407 -1.7911,2.01255 -1.342,5.58346 0.8777,7.09649 l 19.8777,14.63704 0.4228,2.12898 -7.5075,23.50619 c -1.044,3.66885 3.8509,7.3561 7.0675,5.3223 l 19.8756,-14.63571 2.5444,0 19.8777,14.63571 c 1.7284,1.13544 4.2055,0.93713 5.7406,-0.43994 1.3013,-1.20646 1.8432,-3.17782 1.3288,-4.8796 l -7.5094,-23.50619 c -0.7113,-0.14154 0.2801,-1.41925 0.4228,-2.12888 l 19.8751,-14.63715 c 2.2268,-1.51287 2.6678,-5.08382 0.8779,-7.09637 -0.8444,-1.06418 -2.1756,-1.7301 -3.5328,-1.77409 l -24.7367,0 -1.7619,-0.89367 -7.5096,-23.95036 c -0.2213,-0.83794 -0.689,-1.62085 -1.3288,-2.21836 -0.9333,-0.90818 -2.2399,-1.40516 -3.5332,-1.33413 l 0.1573,8.6e-4 0,1.1e-4 -0.009,3.4e-4 z" style="fill:none;stroke:#d77711;stroke-width:8;stroke-linecap:round;stroke-linejoin:round;stroke-miterlimit:4;stroke-opacity:1;stroke-dasharray:none;stroke-dashoffset:0;marker:none;visibility:visible;display:inline;overflow:visible;enable-background:new"/><path id="path15281" d="m 771.46968,499.65111 c -1.8678,0.24167 -3.5157,1.71451 -3.9769,3.54822 l -7.9492,23.95046 -1.7625,0.89368 -24.294,0 c -1.3579,0 -2.6831,0.70979 -3.5342,1.77407 -1.7911,2.01255 -1.342,5.58346 0.8777,7.09649 l 19.8777,14.63704 0.4228,2.12898 -7.5075,23.50619 c -1.044,3.66885 3.8509,7.3561 7.0675,5.3223 l 19.8756,-14.63571 2.5444,0 19.8777,14.63571 c 1.7284,1.13544 4.2055,0.93713 5.7406,-0.43994 1.3013,-1.20646 1.8432,-3.17782 1.3288,-4.8796 l -7.5094,-23.50619 c -0.7113,-0.14154 0.2801,-1.41925 0.4228,-2.12888 l 19.8751,-14.63715 c 2.2268,-1.51287 2.6678,-5.08382 0.8779,-7.09637 -0.8444,-1.06418 -2.1756,-1.7301 -3.5328,-1.77409 l -24.7367,0 -1.7619,-0.89367 -7.5096,-23.95036 c -0.2213,-0.83794 -0.689,-1.62085 -1.3288,-2.21836 -0.9333,-0.90818 -2.2399,-1.40516 -3.5332,-1.33413 l 0.1573,8.6e-4 0,1.1e-4 -0.009,3.4e-4 z" style="fill:none;stroke:#fbc98d;stroke-width:8;stroke-linecap:round;stroke-linejoin:round;stroke-miterlimit:4;stroke-opacity:1;stroke-dasharray:none;stroke-dashoffset:0;marker:none;visibility:visible;display:inline;overflow:visible;enable-background:new"/><path style="opacity:.45783099;fill:url(#radialGradient15309);fill-opacity:1;fill-rule:evenodd;stroke:none;stroke-width:1;marker:none;visibility:visible;display:inline;overflow:visible" id="path15283" d="m 244,51 c 0,2.761424 -2.23858,5 -5,5 -2.76142,0 -5,-2.238576 -5,-5 0,-2.761424 2.23858,-5 5,-5 2.76142,0 5,2.238576 5,5 z" transform="matrix(2.7092,0,0,2.7092,155.52968,391.6529)"/><path id="path15285" d="m 244,51 c 0,2.761424 -2.23858,5 -5,5 -2.76142,0 -5,-2.238576 -5,-5 0,-2.761424 2.23858,-5 5,-5 2.76142,0 5,2.238576 5,5 z" transform="matrix(0.507975,0,0,0.507975,682.30068,504.59291)" style="fill:#fff;fill-opacity:1;fill-rule:evenodd;stroke:none;stroke-width:1;marker:none;visibility:visible;display:inline;overflow:visible"/><path style="opacity:.45783099;fill:url(#radialGradient15311);fill-opacity:1;fill-rule:evenodd;stroke:none;stroke-width:1;marker:none;visibility:visible;display:inline;overflow:visible" id="path15287" d="m 244,51 c 0,2.761424 -2.23858,5 -5,5 -2.76142,0 -5,-2.238576 -5,-5 0,-2.761424 2.23858,-5 5,-5 2.76142,0 5,2.238576 5,5 z" transform="matrix(3.8092,0,0,3.8092,-102.74534,332.5526)"/><path id="path15289" d="m 244,51 c 0,2.761424 -2.23858,5 -5,5 -2.76142,0 -5,-2.238576 -5,-5 0,-2.761424 2.23858,-5 5,-5 2.76142,0 5,2.238576 5,5 z" transform="matrix(0.714225,0,0,0.714225,637.90768,491.3489)" style="fill:#fff;fill-opacity:1;fill-rule:evenodd;stroke:none;stroke-width:1;marker:none;visibility:visible;display:inline;overflow:visible"/><path id="path15291" d="m 206.67379,217.35364 -40.25404,-8.01083 -22.18276,34.4648 -4.82043,-40.75934 -39.632833,-10.44685 37.274853,-17.17984 -2.31168,-40.92131 27.85756,30.14162 38.20413,-14.84391 -20.05793,35.80838 z" transform="matrix(0.795516,0.351305,-0.351384,0.795695,712.13168,340.3985)" style="fill:none;stroke:url(#radialGradient15313);stroke-width:11.49779987;stroke-linecap:round;stroke-linejoin:round;stroke-miterlimit:4;stroke-opacity:1;stroke-dasharray:none;stroke-dashoffset:0;marker:none;visibility:visible;display:inline;overflow:visible;filter:url(#filter15758-4)"/><path id="path15293" d="m 758.81668,572.07109 c 0,0 6.625,-3.125 12.625,0.125 l 21,15.25 c 3.875,2.125 9.5,-1.25 10.375,-4.875 0,0 -6.25,0.75 -8.5,-2.75 l -19.5,-14.75 c -1.625,-1.25 -4.25,-1.25 -6.25,-0.25 z" style="opacity:.56223204;color:#000;fill:#fdeddd;fill-opacity:1;fill-rule:nonzero;stroke:none;stroke-width:1;marker:none;visibility:visible;display:inline;overflow:visible"/><path style="opacity:.56223204;color:#000;fill:#fde6cf;fill-opacity:1;fill-rule:nonzero;stroke:none;stroke-width:1;marker:none;visibility:visible;display:inline;overflow:visible" id="path15295" d="m 750.51391,587.10342 c -3.125,-1 -4.44279,-3.02729 -2.88943,-8.81716 l 3.92665,-12.82661 c 0.46212,-4.39519 0.2966,-7.85179 -5.25988,-11.00768 0,0 -0.75133,6.08162 -2.2258,10.03987 l -4.31672,13.43561 c -0.30418,5.80015 4.7754,9.82989 10.76518,9.17597 z"/><path style="opacity:.56223204;color:#000;fill:#fff;fill-opacity:1;fill-rule:nonzero;stroke:none;stroke-width:1;marker:none;visibility:visible;display:inline;overflow:visible" id="path15297" d="m 766.8426,517.0271 c 0,0 -3.59929,6.37976 -10.37392,7.19638 l -23.7013,0.19632 c -5.89034,0.006 -9.40413,7.38684 -7.27253,12.85057 0,0 0.66626,-4.72505 7.77552,-4.79485 l 24.5633,-0.48718 c 2.04857,0.0806 4.1905,-1.43692 5.24435,-3.40906 z"/><path id="path15299" d="m 766.75053,498.21016 c 0,0 2.26003,1.34292 5.63167,7.27542 l 3.70793,12.1631 c 2.16374,3.85351 4.09997,7.29894 10.45829,6.66191 0,0 -4.81661,-15.45027 -7.5324,-23.08512 -3.10481,-4.90862 -7.96832,-4.71646 -12.26549,-3.01531 z" style="opacity:.56223204;color:#000;fill:#fff;fill-opacity:1;fill-rule:nonzero;stroke:none;stroke-width:1;marker:none;visibility:visible;display:inline;overflow:visible"/><path id="path15301" d="m 244,51 c 0,2.761424 -2.23858,5 -5,5 -2.76142,0 -5,-2.238576 -5,-5 0,-2.761424 2.23858,-5 5,-5 2.76142,0 5,2.238576 5,5 z" transform="matrix(3.8092,0,0,3.8092,-111.61232,384.91405)" style="opacity:.45783099;fill:url(#radialGradient15315);fill-opacity:1;fill-rule:evenodd;stroke:none;stroke-width:1;marker:none;visibility:visible;display:inline;overflow:visible"/><path style="fill:#fff;fill-opacity:1;fill-rule:evenodd;stroke:none;stroke-width:1;marker:none;visibility:visible;display:inline;overflow:visible" id="path15303" d="m 244,51 c 0,2.761424 -2.23858,5 -5,5 -2.76142,0 -5,-2.238576 -5,-5 0,-2.761424 2.23858,-5 5,-5 2.76142,0 5,2.238576 5,5 z" transform="matrix(0.714225,0,0,0.714225,629.04068,543.7102)"/><path id="path15305" d="m 244,51 c 0,2.761424 -2.23858,5 -5,5 -2.76142,0 -5,-2.238576 -5,-5 0,-2.761424 2.23858,-5 5,-5 2.76142,0 5,2.238576 5,5 z" transform="matrix(1.8092,0,0,1.8092,362.30368,487.6412)" style="opacity:.45783099;fill:url(#radialGradient15317);fill-opacity:1;fill-rule:evenodd;stroke:none;stroke-width:1;marker:none;visibility:visible;display:inline;overflow:visible"/><path style="fill:#fff;fill-opacity:1;fill-rule:evenodd;stroke:none;stroke-width:1;marker:none;visibility:visible;display:inline;overflow:visible" id="path15307" d="m 244,51 c 0,2.761424 -2.23858,5 -5,5 -2.76142,0 -5,-2.238576 -5,-5 0,-2.761424 2.23858,-5 5,-5 2.76142,0 5,2.238576 5,5 z" transform="matrix(0.339225,0,0,0.339225,714.08068,563.0622)"/></g><rect style="opacity:0;fill:#ef2929;fill-opacity:1;stroke:none" id="rect4473" width="32" height="32" x="353" y="161.362"/><rect id="rect4475" width="16" height="16" x="353" y="218.362" style="opacity:0;fill:#ef2929;fill-opacity:1;stroke:none"/><path id="path16992" d="m 351.78846,182.36536 -87.69157,53.54944 c -3.8007,2.2981 8.13172,4.24263 3.44714,6.80589 l -33.66578,23.94152 c -3.75,3.25 -12.97141,2.48552 -12.97141,2.48552 l -91.24863,-51.52932 99.91347,-105.21499 z" transform="matrix(0.18117476,0,0,0.1809007,343.90947,75.672464)" style="opacity:.64224135;fill:url(#linearGradient17044);fill-opacity:1;stroke:none;filter:url(#filter16660)"/><path style="fill:url(#linearGradient17046);fill-opacity:1;stroke:url(#linearGradient17048);stroke-width:1;stroke-linecap:round;stroke-linejoin:round;stroke-miterlimit:4;stroke-opacity:1;stroke-dasharray:none" id="path16994" d="m 356.69862,83.968963 25.0563,3.973581 c 1.48946,0.273621 1.75171,1.378776 1.75171,2.210846 l 0,20.24104 c 0,1.32515 1.95457,0.76741 1.95457,2.18029 l 0.002,11.69763 c 0,1.35965 -2.12138,0.11003 -2.12138,1.05464 0,0 0.16262,1.2649 -0.53199,1.07906 l -26.12807,-7.08211 z"/><path id="path16996" d="m 74.34375,48.4375 0,194.25 35.15625,7.78125 -0.21875,13.59375 c 0,0 -5.78125,41.21875 10.21875,35.21875 l 75.03125,-33.84375 -6.34375,-1.53125 0,-162.22546 z" transform="matrix(0.18117476,0,0,0.1809007,343.90947,75.672464)" style="opacity:.74137932;fill:url(#linearGradient17050);fill-opacity:1;stroke:none;filter:url(#filter16202)"/><path style="opacity:.72413791;fill:none;stroke:url(#linearGradient17052);stroke-width:1.5;stroke-linecap:round;stroke-linejoin:round;stroke-miterlimit:4;stroke-opacity:1" id="path16998" d="m 357.41986,85.236667 -0.45447,32.581643 25.05384,7.1203 c 0.002,0.002 0.004,0.004 0.006,0.006 0.0986,0.0264 0.0692,0.0183 0.0906,-0.006 0.0214,-0.024 0.0662,-0.1189 0.0849,-0.23744 0.0374,-0.23707 0,-0.53139 0,-0.53139 -7.3e-4,-0.0113 -7.3e-4,-0.0226 0,-0.0339 0,-0.17642 0.0697,-0.35595 0.19249,-0.46921 0.12283,-0.11326 0.26724,-0.1571 0.40765,-0.1809 0.2808,-0.0476 0.27298,0.11539 0.55688,0.12694 0.2839,0.0115 0.54662,-3.7e-4 0.68507,-0.0565 0.13844,-0.0562 0.18683,-0.086 0.18683,-0.34484 l 0,-10.01698 c 0,-0.28069 -0.0848,-0.40584 -0.23779,-0.5314 -0.15299,-0.12555 -0.39789,-0.22683 -0.66808,-0.32788 -0.27019,-0.10105 -0.34539,-0.20048 -0.59998,-0.39572 -0.25458,-0.19524 -0.44727,-0.5185 -0.44727,-0.92712 l 0,-19.8841 c 0,-0.38594 0.0608,-1.06919 -0.15243,-1.4202 -0.21262,-0.34999 -0.68826,-0.39322 -1.36491,-0.51883 l -0.006,0 z"/><path style="opacity:.28017243;fill:#0d0800;fill-opacity:1;stroke:none;filter:url(#filter16166)" id="path17000" d="m 273.50001,408.89343 47.64336,36.99429 c 3.32889,2.77408 3.35664,7.51674 3.35664,7.51674 l 0,113.02022 c 0,3.7034 -5.5,3.12222 -5.5,6.875 l -0.4146,36.6858 -45.05507,-15.66446 z" transform="matrix(0.17751655,0,0,0.1809007,309.36491,10.548213)"/><path id="path17002" d="M 356.52605,83.912115 366.977,90.62271 c 0.6031,0.50184 0.60813,1.35979 0.60813,1.35979 l 0,20.44544 c 0,0.66993 -1.99647,0.56481 -1.99647,1.24369 l -0.0751,15.50061 c 0,0.63327 -0.37536,1.17963 -1.25724,-0.008 l -7.72476,-9.89968 z" style="fill:url(#linearGradient17054);fill-opacity:1;stroke:url(#linearGradient17056);stroke-width:1;stroke-linecap:round;stroke-linejoin:round;stroke-opacity:1"/><path style="fill:url(#radialGradient17058);fill-opacity:1;stroke:url(#linearGradient17060);stroke-width:1.5;stroke-linecap:round;stroke-linejoin:round;stroke-miterlimit:4;stroke-opacity:1" id="path17010" d="m 357.95052,86.560426 0.006,32.375574 6.35781,8.06704 0.0623,-13.2849 c 0,-0.002 -10e-6,-0.004 0,-0.006 0.002,-0.47688 0.24955,-0.98742 0.51522,-1.26065 0.19379,-0.19932 1.35221,-0.29913 1.48124,-0.37311 l 0,-20.04606 0,-0.006 c -0.002,-0.009 -0.1472,-0.39007 -0.1472,-0.39007 z"/><path id="path5717-0-9-7" d="m 361.02173,106.52575 c -0.0116,-0.28623 -0.0706,-0.53304 -0.1423,-0.59567 l -0.93876,-1.11436 -0.0367,-0.26702 -0.028,-3.73749 c -0.002,-0.20887 -0.0306,-0.40951 -0.0729,-0.53565 -0.0802,-0.2664 -0.21826,-0.18114 -0.27443,0.1672 l -0.54526,3.12444 -0.0822,0.0746 -0.92101,-1.04835 c -0.14362,-0.14403 -0.28111,0.62578 -0.19845,1.11141 l 0.59094,2.99131 0.003,1.39143 -0.54519,3.12442 c -0.0421,0.27111 -0.0315,0.65121 0.0236,0.88119 0.0484,0.19468 0.1255,0.26885 0.19093,0.18234 l 0.90373,-1.2619 c 0.004,-0.11008 0.0554,0.0363 0.0831,0.0553 l 0.591,2.99132 c 0.0612,0.33566 0.2004,0.38734 0.27646,0.10285 0.0404,-0.13471 0.0647,-0.34254 0.0648,-0.55159 l -0.0285,-3.80551 0.0326,-0.27513 0.92097,-1.26391 c 0.0323,-0.038 0.0621,-0.11333 0.0846,-0.21441 0.0342,-0.1477 0.0519,-1.35096 0.0478,-1.54959 l 1.6e-4,0.0237 -1e-5,-7.5e-4 0,0 z" style="fill:none;stroke:#c36e11;stroke-width:1.51371622;stroke-linecap:round;stroke-linejoin:round;stroke-miterlimit:4;stroke-opacity:1;stroke-dasharray:none;stroke-dashoffset:0;marker:none;visibility:visible;display:inline;overflow:visible;enable-background:new"/><path id="path5717-0-9" d="m 362.24297,105.50339 c -0.0134,-0.28625 -0.0816,-0.53304 -0.16448,-0.59568 l -0.68742,-1.11436 -0.0424,-0.26702 -0.0323,-3.73749 c -0.002,-0.20887 -0.0355,-0.40952 -0.0843,-0.53564 -0.0927,-0.26642 -0.16389,-0.18115 -0.22883,0.1672 l -1.11641,3.12444 -0.095,0.0746 -1.06463,-1.04835 c -0.166,-0.14403 -0.32493,0.62578 -0.22939,1.1114 l 0.68308,2.99133 0.003,2.39142 -0.63021,3.12442 c -0.0487,0.27111 -0.0364,0.65121 0.0273,0.8812 0.0559,0.19468 0.14508,0.26885 0.22069,0.18234 l 1.04466,-1.26189 c 0.005,-0.11007 0.0641,0.0363 0.0961,0.0553 l 0.68316,2.99133 c 0.0708,0.33568 0.62938,0.38734 0.7173,0.10285 0.0466,-0.1347 0.0748,-0.34253 0.0749,-0.55158 l -0.0329,-3.80551 0.0377,-0.27513 0.66684,-1.26392 c 0.0373,-0.038 0.0718,-0.11326 0.0978,-0.2144 0.0396,-0.1477 0.0601,-2.35097 0.0552,-2.5496 l 1.8e-4,0.0238 -2e-5,-7.5e-4 0,0 z" style="fill:none;stroke:#fde2c0;stroke-width:1.51371622;stroke-linecap:round;stroke-linejoin:round;stroke-miterlimit:4;stroke-opacity:1;stroke-dasharray:none;stroke-dashoffset:0;marker:none;visibility:visible;display:inline;overflow:visible;enable-background:new"/><path style="opacity:.64224135;fill:url(#linearGradient4501);fill-opacity:1;stroke:none;filter:url(#filter16660)" id="path4477" d="m 351.78846,182.36536 -87.69157,53.54944 c -3.8007,2.2981 8.13172,4.24263 3.44714,6.80589 l -33.66578,23.94152 c -3.75,3.25 -12.97141,2.48552 -12.97141,2.48552 l -91.24863,-51.52932 99.91347,-105.21499 z" transform="matrix(0.11806336,0,0,0.11774547,349.34335,159.48859)"/><path id="path4479" d="m 355.67746,161.88865 18.69807,3.05601 c 0.97062,0.1781 1.14152,0.89742 1.14152,1.439 l 0,13.5237 c 0,0.86253 1.00853,0.58789 1.00853,1.50751 l 0.001,7.61381 c 0,0.88498 -1.02885,-0.0168 -1.02885,0.59805 0,0 0.23633,1.25989 -0.96631,1.20143 l -18.86525,-5.92751 z" style="fill:url(#linearGradient4503);fill-opacity:1;stroke:url(#linearGradient4505);stroke-width:1;stroke-linecap:round;stroke-linejoin:round;stroke-miterlimit:4;stroke-opacity:1;stroke-dasharray:none"/><path style="opacity:.58620689;fill:url(#linearGradient4507);fill-opacity:1;stroke:none;filter:url(#filter16202)" id="path4481" d="m 74.34375,48.4375 0,194.25 35.15625,7.78125 -0.21875,13.59375 c 0,0 -5.78125,41.21875 10.21875,35.21875 l 75.03125,-33.84375 -6.34375,-1.53125 19.46495,-156.49323 z" transform="matrix(0.11806336,0,0,0.11774547,347.34335,157.48859)"/><path id="path4483" d="m 356.10327,163.15573 0.18997,20.58815 17.88083,5.81128 c 0.001,0.001 -0.35055,-0.30636 -0.34955,-0.30536 0.0643,0.0172 0.0451,0.0119 0.059,-0.004 0.0139,-0.0156 0.0431,-0.0774 0.0553,-0.15454 0.0244,-0.15431 0,-0.34587 0,-0.34587 -4.8e-4,-0.007 -4.8e-4,-0.0147 0,-0.0221 0,-0.11483 0.0454,-0.23168 0.12544,-0.3054 0.0801,-0.0737 0.17414,-0.10226 0.26564,-0.11775 0.18299,-0.0309 0.17789,0.0752 0.36289,0.0826 0.185,0.007 0.35622,-2.4e-4 0.44643,-0.0368 0.0903,-0.0366 0.12262,-0.056 0.12175,-0.22445 l -0.0312,-6.05115 c 0,0 -0.0553,-0.26415 -0.15495,-0.34587 -0.0997,-0.0817 -0.25929,-0.14765 -0.43536,-0.21342 -0.17607,-0.0658 -0.0376,-0.13049 -0.20348,-0.25757 -0.16591,-0.12708 -0.29349,-0.33749 -0.29147,-0.60344 l 0.10133,-13.32262 c 0.002,-0.25121 0.0396,-0.69592 -0.0993,-0.92439 -0.13855,-0.2278 -0.44851,-0.25594 -0.88944,-0.33769 l -0.004,0 z" style="opacity:.63362068;fill:none;stroke:url(#linearGradient4509);stroke-width:1.5;stroke-linecap:round;stroke-linejoin:round;stroke-miterlimit:4;stroke-opacity:1"/><path id="path4485" d="m 273.50001,408.89343 47.64336,36.99429 c 3.32889,2.77408 3.35664,7.51674 3.35664,7.51674 l 0,113.02022 c 0,3.7034 -5.5,3.12222 -5.5,6.875 l -0.4146,36.6858 -45.05507,-15.66446 z" transform="matrix(0.11567946,0,0,0.11774547,324.83222,114.10022)" style="opacity:.28017243;fill:#0d0800;fill-opacity:1;stroke:none;filter:url(#filter16166)"/><path style="fill:url(#linearGradient4511);fill-opacity:1;stroke:url(#linearGradient4513);stroke-width:1;stroke-linecap:round;stroke-linejoin:round;stroke-opacity:1" id="path4487" d="m 355.56501,161.85165 7.53375,5.46157 c 0.39301,0.32664 0.39629,0.88507 0.39629,0.88507 l 0,13.30762 c 0,0.43604 -1.96185,0.36763 -1.96185,0.8095 l -0.049,10.0891 c 0,0.41219 0.0679,0.76781 -0.50678,-0.005 l -5.40888,-7.53729 z"/><path id="path4495" d="m 356.86827,164.7004 0.004,19.88526 3.30785,4.774 0.1031,-7.85145 1.96629,-0.78392 0.0808,-12.39992 z" style="fill:url(#radialGradient4515);fill-opacity:1;stroke:url(#linearGradient4517);stroke-width:1.5;stroke-linecap:round;stroke-linejoin:round;stroke-miterlimit:4;stroke-opacity:1"/><path style="fill:none;stroke:#96550d;stroke-width:1.51371634;stroke-linecap:round;stroke-linejoin:round;stroke-miterlimit:4;stroke-opacity:1;stroke-dasharray:none;stroke-dashoffset:0;marker:none;visibility:visible;display:inline;overflow:visible;enable-background:new" id="path4497" d="m 358.49463,176.57051 c -0.007,-0.1863 -0.046,-0.34694 -0.0927,-0.38771 l -0.61175,-0.72532 -0.024,-0.1738 -0.0182,-2.43267 c -10e-4,-0.13595 -0.0199,-0.26654 -0.0476,-0.34865 -0.0523,-0.17339 -0.14223,-0.1179 -0.17884,0.10883 l -0.35531,2.03365 -0.0536,0.0486 -0.60018,-0.68235 c -0.0936,-0.0938 -0.18319,0.40731 -0.12932,0.7234 l 0.38508,1.947 0.002,0.90566 -0.35528,2.03363 c -0.0274,0.17646 -0.0205,0.42387 0.0154,0.57355 0.0315,0.12673 0.0818,0.175 0.12443,0.11869 l 0.58892,-0.82135 c 0.003,-0.0716 0.0361,0.0236 0.0542,0.036 l 0.38512,1.947 c 0.0399,0.21848 0.1306,0.25212 0.18017,0.067 0.0263,-0.0876 0.0422,-0.22295 0.0422,-0.35902 l -0.0185,-2.47695 0.0213,-0.17907 0.60015,-0.82267 c 0.0211,-0.0248 0.0405,-0.0737 0.0551,-0.13955 0.0223,-0.0961 0.0338,-0.87932 0.0311,-1.0086 l 10e-5,0.0154 -10e-6,-4.9e-4 0,0 z"/><path style="fill:none;stroke:#fde2c0;stroke-width:1.51371634;stroke-linecap:round;stroke-linejoin:round;stroke-miterlimit:4;stroke-opacity:1;stroke-dasharray:none;stroke-dashoffset:0;marker:none;visibility:visible;display:inline;overflow:visible;enable-background:new" id="path4499" d="m 359.29044,175.90507 c -0.009,-0.18631 -0.0548,-0.34694 -0.11042,-0.38771 l -0.46147,-0.72532 -0.0284,-0.1738 -0.0217,-2.43268 c -0.001,-0.13595 -0.0239,-0.26655 -0.0566,-0.34863 -0.0622,-0.17342 -0.11002,-0.11791 -0.15362,0.10882 l -0.74945,2.03365 -0.0639,0.0486 -0.71469,-0.68235 c -0.11145,-0.0938 -0.21814,0.4073 -0.154,0.72339 l 0.45856,1.94701 0.002,1.55654 -0.42307,2.03363 c -0.0326,0.17646 -0.0245,0.42386 0.0183,0.57356 0.0376,0.12671 0.0974,0.17499 0.14815,0.11868 l 0.70129,-0.82134 c 0.003,-0.0716 0.0431,0.0237 0.0646,0.036 l 0.45861,1.94702 c 0.0475,0.21849 0.4225,0.25211 0.48153,0.067 0.0313,-0.0876 0.0502,-0.22294 0.0503,-0.35901 l -0.022,-2.47694 0.0253,-0.17909 0.44767,-0.82266 c 0.025,-0.0248 0.0481,-0.0737 0.0657,-0.13955 0.0266,-0.0961 0.0404,-1.53021 0.0371,-1.6595 l 1.3e-4,0.0155 -1e-5,-4.9e-4 0,0 z"/><path style="fill:url(#radialGradient4627);fill-opacity:1;stroke:#e37809;stroke-width:.99999994000000003;stroke-linecap:round;stroke-linejoin:round;stroke-miterlimit:4;stroke-opacity:1;stroke-dasharray:none" id="path4583" d="m 354.52002,218.89051 10.93797,-0.0105 0.0655,7.41062 0.99029,1.0072 4.7e-4,5.58217 c 0,0 -0.8892,-0.017 -1.45203,-0.045 l -10.35996,-0.0402 z"/><path style="opacity:.63362068;fill:none;stroke:url(#linearGradient4607);stroke-width:1.5;stroke-linecap:round;stroke-linejoin:round;stroke-miterlimit:4;stroke-opacity:1" id="path4587" d="m 355.52551,220.22236 1.37053,11.31206 8.39459,0.119 -0.11792,-3.83806 -1.0134,-1.05999 0.0396,-6.62274 z"/><path style="opacity:.28017243;fill:#0d0800;fill-opacity:1;stroke:none;filter:url(#filter16166)" id="path4589" d="m 273.50001,408.89343 47.64336,36.99429 c 3.32889,2.77408 3.35664,7.51674 3.35664,7.51674 l 0,113.02022 c 0,3.7034 -5.5,3.12222 -5.5,6.875 l -0.4146,36.6858 -45.05507,-15.66446 z" transform="matrix(0.05413661,0,0,0.0563539,340.27231,196.0811)"/><path id="path4591" d="m 354.52231,218.89111 c 0,0 2.00778,1.96751 6.05772,1.96751 l -0.0224,12.96469 c -4.06587,0 -6.05572,-0.86938 -6.05572,-0.86938 z" style="fill:url(#linearGradient4609);fill-opacity:1;stroke:#e37809;stroke-width:.99999994;stroke-linecap:round;stroke-linejoin:round;stroke-opacity:1"/><path style="fill:url(#radialGradient4613);fill-opacity:1;stroke:url(#linearGradient4615);stroke-width:1.5;stroke-linecap:round;stroke-linejoin:round;stroke-miterlimit:4;stroke-opacity:1" id="path4593" d="m 355.83932,221.20093 0.0241,10.85433 c 0,0 2.19511,0.48753 3.41546,0.48753 l -0.0287,-10.47991 c -1.31534,0 -3.41086,-0.86195 -3.41086,-0.86195 z"/><path id="path4635" d="m 357.53746,227.02438 c -0.004,-0.11996 -0.0266,-0.2235 -0.0537,-0.24975 l -0.35398,-0.46727 -0.0138,-0.112 -0.0658,-1.93177 c -5.9e-4,-0.0875 -0.0118,-0.17171 -0.0276,-0.22461 -0.0303,-0.11174 -0.0822,-0.076 -0.10353,0.0702 l -0.15035,1.67471 -0.0309,0.0313 -0.34728,-0.43959 c -0.0542,-0.0603 -0.106,0.26239 -0.0747,0.46603 l -0.43316,1.09047 9e-4,0.58344 0.4504,1.47393 c -0.0158,0.11369 -0.23287,0.33936 -0.21197,0.43578 0.0182,0.0817 0.0473,0.11278 0.0719,0.0765 l 0.56175,-0.59541 c 9.1e-4,-0.0461 0.0209,0.0152 0.0313,0.0232 l 0.002,1.32059 c 0.0232,0.14075 0.0756,0.16242 0.10423,0.0431 0.0153,-0.0564 0.0244,-0.14362 0.0244,-0.23129 l 0.21037,-1.66199 0.0123,-0.11539 0.34727,-0.52999 c 0.0122,-0.0159 0.0234,-0.0474 0.0319,-0.0899 0.0129,-0.062 0.0196,-0.56647 0.0179,-0.64975 l 6e-5,0.0105 0,-3.1e-4 0,0 z" style="fill:none;stroke:#e98515;stroke-width:.92420429;stroke-linecap:round;stroke-linejoin:round;stroke-miterlimit:4;stroke-opacity:1;stroke-dasharray:none;stroke-dashoffset:0;marker:none;visibility:visible;display:inline;overflow:visible;enable-background:new"/><path id="path4637" d="m 358.49603,226.60103 c -0.005,-0.11909 -0.035,-0.22187 -0.0706,-0.24794 l -0.59342,-0.46384 -0.0182,-0.11117 -0.0139,-1.55569 c -6.3e-4,-0.0869 -0.0153,-0.17045 -0.0362,-0.22294 -0.0398,-0.11091 -0.0703,-0.0754 -0.0982,0.0697 l -0.47926,1.30049 -0.0409,0.0311 -1.14204,-0.45845 c -0.0712,-0.0599 -0.1395,0.26046 -0.0985,0.46259 l 0.64679,1.24509 10e-4,0.99539 -0.71249,1.69825 c -0.0209,0.11285 -0.0157,0.27104 0.0117,0.36678 0.024,0.0811 0.0623,0.11195 0.0947,0.0759 l 1.22187,-0.9009 c 10e-4,-0.0458 0.0276,0.0152 0.0412,0.0231 l 0.29328,1.2451 c 0.0303,0.13973 0.27019,0.16122 0.30792,0.0428 0.02,-0.056 0.032,-0.14256 0.0322,-0.22958 l -0.014,-1.58398 0.0162,-0.11455 0.58458,-0.52609 c 0.016,-0.0158 0.0308,-0.0471 0.042,-0.0892 0.017,-0.0615 0.0258,-0.97856 0.0237,-1.06123 l 8e-5,0.0104 0,-3.1e-4 0,0 z" style="fill:none;stroke:#fef6eb;stroke-width:.96800601;stroke-linecap:round;stroke-linejoin:round;stroke-miterlimit:4;stroke-opacity:1;stroke-dasharray:none;stroke-dashoffset:0;marker:none;visibility:visible;display:inline;overflow:visible;enable-background:new"/></g></svg>