<svg xmlns="http://www.w3.org/2000/svg" xmlns:svg="http://www.w3.org/2000/svg" xmlns:xlink="http://www.w3.org/1999/xlink" id="svg9662" width="24" height="24" version="1.1" viewBox="0 0 24 24"><defs id="defs3"><linearGradient id="linearGradient4343"><stop id="stop4345" offset="0" style="stop-color:#df2000;stop-opacity:1"/><stop id="stop4347" offset="1" style="stop-color:#881805;stop-opacity:1"/></linearGradient><linearGradient id="linearGradient4318"><stop style="stop-color:#fff;stop-opacity:1" id="stop4320" offset="0"/><stop style="stop-color:#fff;stop-opacity:0" id="stop4322" offset="1"/></linearGradient><linearGradient id="linearGradient4304"><stop style="stop-color:#ce2509;stop-opacity:1" id="stop4306" offset="0"/><stop style="stop-color:#a9210a;stop-opacity:1" id="stop4308" offset="1"/></linearGradient><linearGradient id="linearGradient4310" x1="28.415" x2="31.522" y1="9.273" y2="19.204" gradientUnits="userSpaceOnUse" xlink:href="#linearGradient4304"/><linearGradient id="linearGradient4339" x1="26.809" x2="31.522" y1="3.704" y2="19.204" gradientTransform="translate(0,0.98994346)" gradientUnits="userSpaceOnUse" xlink:href="#linearGradient4343"/><radialGradient id="radialGradient4349" cx="27.993" cy="13" r="10.833" fx="27.993" fy="13" gradientTransform="matrix(2.7510713,0,0,2.3899162,-49.67941,-17.015106)" gradientUnits="userSpaceOnUse" xlink:href="#linearGradient4318"/></defs><metadata id="metadata4"/><g id="g4326" transform="matrix(1.01163,0,0,1.0101587,-20.452835,-1.7447338)" style="stroke-width:.9892233"><path style="fill:#e24329;fill-opacity:1;fill-rule:evenodd;stroke:none;stroke-width:.9892233;stroke-linecap:butt;stroke-linejoin:round;stroke-miterlimit:4;stroke-dasharray:none;stroke-opacity:1" id="path4268" d="m 28.012539,10.206244 8.200627,0 L 38.959248,2.1937049 43.510972,14.607498 32.075235,22.996213 20.639498,14.56988 24.965517,2.0432347 Z"/><g id="g4278" transform="matrix(-1,0,0,1,64.092707,0.98994346)" style="stroke-width:.9892233"><g id="g4284" style="stroke-width:.9892233"><path style="fill:#fc6d26;fill-opacity:1;fill-rule:evenodd;stroke:none;stroke-width:.9892233px;stroke-linecap:butt;stroke-linejoin:miter;stroke-opacity:1" id="path4280" d="m 28.012539,9.2163007 -5.818181,0 -1.55486,4.3636363 11.435737,8.426333 z"/><path style="fill:#fca326;fill-opacity:1;fill-rule:evenodd;stroke:none;stroke-width:.9892233px;stroke-linecap:butt;stroke-linejoin:miter;stroke-opacity:1" id="path4282" d="M 22.694403,9.207369 32.028121,21.951963 20.639498,13.579937 Z"/></g></g><g id="g4288" transform="translate(0.01747244,0.98994346)" style="stroke-width:.9892233"><g id="g4290" style="stroke-width:.9892233"><path id="path4292" d="m 28.012539,9.2163007 -5.818181,0 -1.55486,4.3636363 11.435737,8.426333 z" style="fill:#fc6d26;fill-opacity:1;fill-rule:evenodd;stroke:none;stroke-width:.9892233px;stroke-linecap:butt;stroke-linejoin:miter;stroke-opacity:1"/><path id="path4294" d="M 22.694403,9.207369 32.028121,21.951963 20.639498,13.579937 Z" style="fill:#fca326;fill-opacity:1;fill-rule:evenodd;stroke:none;stroke-width:.9892233px;stroke-linecap:butt;stroke-linejoin:miter;stroke-opacity:1"/></g></g><path id="path4266" d="m 28.012539,10.206244 8.200627,0 L 38.959248,2.1937049 43.510972,14.607498 32.075235,22.996213 20.639498,14.56988 24.965517,2.0432347 Z" style="fill:none;fill-rule:evenodd;stroke:url(#linearGradient4339);stroke-width:.9892233;stroke-linecap:butt;stroke-linejoin:round;stroke-miterlimit:4;stroke-dasharray:none;stroke-opacity:1"/><path id="path4312" d="M 25.001953,4.0175781 21.826172,13.210938 32.078125,20.761719 42.3125,13.253906 38.990234,4.1992188 37.160156,9.5410156 A 1.0021178,1.0021178 0 0 1 36.212891,10.21875 l -8.201172,0 A 1.0021178,1.0021178 0 0 1 27.072266,9.5664062 L 25.001953,4.0175781 Z" transform="translate(0,0.98994346)" style="opacity:.4;fill:none;fill-rule:evenodd;stroke:url(#radialGradient4349);stroke-width:.9892233;stroke-linecap:butt;stroke-linejoin:miter;stroke-miterlimit:4;stroke-dasharray:none;stroke-opacity:1"/></g></svg>