<svg xmlns="http://www.w3.org/2000/svg" xmlns:xlink="http://www.w3.org/1999/xlink" id="svg2" width="48" height="48" version="1.1"><defs id="defs4"><radialGradient id="radialGradient3989" cx="230.37" cy="494.97" r="24" gradientTransform="matrix(3.6081 0 0 4.2003 -286.48 -2311.2)" gradientUnits="userSpaceOnUse"><stop id="stop4001" offset="0" stop-color="#f0f0f0"/><stop id="stop3999" offset=".237" stop-color="#efefef"/><stop id="stop3900" offset="1" stop-color="#f3f3f3"/></radialGradient><filter id="filter4029" width="1.242" height="1.649" x="-.121" y="-.325" color-interpolation-filters="sRGB"><feGaussianBlur id="feGaussianBlur4031" stdDeviation="1.826"/></filter></defs><metadata id="metadata7"/><g id="layer1" transform="translate(-208 -527.36)"><rect id="rect3868" width="48" height="48" x="527.36" y="-256" fill="url(#radialGradient3989)" transform="rotate(90)"/><path id="path4003" fill="#fff" d="m249.5 555.36c0 3.7279-8.1148 6.75-18.125 6.75s-18.125-3.0221-18.125-6.75 8.1148-6.75 18.125-6.75 18.125 3.0221 18.125 6.75z" filter="url(#filter4029)" opacity=".654" transform="matrix(1.8661 0 0 3.6982 -199.89 -1500.4)"/><path id="path3991" d="m233.7 502.41c0 3.4171-2.7701 6.1872-6.1872 6.1872s-6.1872-2.7701-6.1872-6.1872 2.7701-6.1872 6.1872-6.1872 6.1872 2.7701 6.1872 6.1872z" opacity=".1" transform="matrix(.80812 0 0 -.80812 39.143 953.37)"/><path id="path3872" fill="#fff" d="m233.7 502.41c0 3.4171-2.7701 6.1872-6.1872 6.1872s-6.1872-2.7701-6.1872-6.1872 2.7701-6.1872 6.1872-6.1872 6.1872 2.7701 6.1872 6.1872z" transform="matrix(.80812 0 0 -.80812 39.143 952.37)"/><path id="path3878" fill="#8e8e8e" d="m233.7 502.41c0 3.4171-2.7701 6.1872-6.1872 6.1872s-6.1872-2.7701-6.1872-6.1872 2.7701-6.1872 6.1872-6.1872 6.1872 2.7701 6.1872 6.1872z" transform="matrix(.48487 0 0 -.48487 112.69 789.97)"/><path id="path3882" fill="none" stroke="#000" stroke-linecap="round" stroke-width=".915" d="m232.56 505.99c-1.9749 2.7886-5.8365 3.4482-8.6251 1.4734-0.55651-0.39412-1.044-0.87753-1.4428-1.4307" opacity=".15" transform="matrix(1.1362 0 0 1.1753 -26.627 -35.738)"/><path id="path3993" d="m233.7 502.41c0 3.4171-2.7701 6.1872-6.1872 6.1872s-6.1872-2.7701-6.1872-6.1872 2.7701-6.1872 6.1872-6.1872 6.1872 2.7701 6.1872 6.1872z" opacity=".1" transform="matrix(.80812 0 0 -.80812 57.143 953.37)"/><path id="path3995" fill="#fff" d="m233.7 502.41c0 3.4171-2.7701 6.1872-6.1872 6.1872s-6.1872-2.7701-6.1872-6.1872 2.7701-6.1872 6.1872-6.1872 6.1872 2.7701 6.1872 6.1872z" transform="matrix(.80812 0 0 -.80812 57.143 952.37)"/><path id="path3997" fill="#8e8e8e" d="m233.7 502.41c0 3.4171-2.7701 6.1872-6.1872 6.1872s-6.1872-2.7701-6.1872-6.1872 2.7701-6.1872 6.1872-6.1872 6.1872 2.7701 6.1872 6.1872z" transform="matrix(.48487 0 0 -.48487 130.69 789.97)"/><path id="path4053" fill="none" stroke="#fff" stroke-linecap="round" stroke-width=".969" d="m232.56 505.99c-1.9749 2.7886-5.8365 3.4482-8.6251 1.4734-0.55651-0.39412-1.044-0.87753-1.4428-1.4307" opacity=".701" transform="matrix(1.012 0 0 1.1753 1.6222 -36.738)"/></g></svg>