<svg xmlns="http://www.w3.org/2000/svg" xmlns:svg="http://www.w3.org/2000/svg" id="SVGRoot" width="16" height="16" version="1.1" viewBox="0 0 16 16"><metadata id="metadata5221"/><g id="layer1"><path style="color:#000;text-indent:0;text-transform:none;fill:#bebebe;enable-background:new" id="path4599" d="m 7.779297,0.998047 v 0.00195 C 7.098247,1.182487 6.506069,1.7146051 6.355469,2.4238251 6.048989,3.2857751 5.792677,4.165347 5.498047,5.031247 4.378947,5.056147 3.253672,4.977969 2.138672,5.076169 0.94377201,5.342309 0.37275701,7.1108189 1.373047,7.919919 c 0.81417,0.69141 1.7107,1.2790281 2.5625,1.9238281 -0.31227,1.0962999 -0.753223,2.1619499 -0.970703,3.2812499 -0.0799,1.293 1.678647,2.292631 2.685547,1.394531 0.78479,-0.56692 1.563856,-1.138831 2.347656,-1.707031 0.93364,0.64349 1.803709,1.388478 2.787109,1.955078 1.117,0.48964 2.544644,-0.642322 2.214844,-1.851562 -0.26263,-1.0374 -0.62909,-2.046666 -0.9375,-3.0722659 0.89525,-0.68599 1.853572,-1.2960156 2.701172,-2.0410156 0.67556,-0.7335701 0.424752,-1.9353158 -0.361328,-2.4785156 -0.70531,-0.46374 -1.576141,-0.2441088 -2.369141,-0.2929688 H 10.46875 c -0.36771,-1.0708 -0.669878,-2.1694562 -1.080078,-3.2226562 -0.13,-0.48 -0.969375,-0.8105469 -1.609375,-0.810547 z M 7,6 H 9 V 9.0000001 H 7 Z m 0,4 h 2 v 1 H 7 Z"/></g></svg>